<?xml version="1.0" standalone="no"?>
<!DOCTYPE svg PUBLIC "-//W3C//DTD SVG 20010904//EN"
 "http://www.w3.org/TR/2001/REC-SVG-20010904/DTD/svg10.dtd">
<svg version="1.0" xmlns="http://www.w3.org/2000/svg"
 width="1024.000000pt" height="1024.000000pt" viewBox="0 0 1024.000000 1024.000000"
 preserveAspectRatio="xMidYMid meet">
<metadata>
Created by potrace 1.16, written by Peter Selinger 2001-2019
</metadata>
<g transform="translate(0.000000,1024.000000) scale(0.100000,-0.100000)"
fill="#000000" stroke="none">
<path d="M3395 8719 c-399 -55 -721 -327 -830 -704 -45 -157 -46 -205 -43
-1860 4 -1458 5 -1565 22 -1635 81 -339 305 -600 617 -717 180 -68 52 -64
1989 -61 l1755 3 88 28 c356 111 586 345 689 703 l23 79 0 1685 0 1685 -28 88
c-98 315 -319 549 -616 652 -180 63 -41 59 -1906 61 -935 1 -1727 -2 -1760 -7z
m3550 -258 c250 -84 417 -249 501 -494 18 -50 28 -110 35 -197 5 -72 8 -756 6
-1625 -3 -1703 5 -1560 -89 -1754 -44 -92 -61 -116 -137 -190 -94 -93 -164
-140 -269 -178 -145 -54 -91 -52 -1857 -52 -931 0 -1670 4 -1710 9 -97 12
-217 52 -295 97 -86 50 -216 180 -268 268 -22 39 -53 106 -69 150 l-28 80 -3
1630 c-2 1604 -2 1630 18 1710 73 292 312 515 605 564 28 5 824 8 1770 7
l1720 -1 70 -24z"/>
<path d="M6346 8284 c-241 -54 -426 -210 -522 -441 -15 -37 -29 -69 -29 -71
-1 -1 -40 23 -86 55 -448 301 -1074 334 -1574 83 -141 -71 -272 -168 -395
-290 -317 -317 -475 -732 -456 -1195 16 -408 167 -757 450 -1039 228 -228 487
-368 809 -438 149 -32 443 -32 604 0 187 37 385 115 529 207 l52 33 308 -311
c507 -512 508 -513 558 -532 109 -42 240 1 301 99 27 44 30 58 30 125 0 54 -6
86 -19 111 -10 19 -198 216 -418 436 l-400 401 50 75 c241 353 329 773 257
1223 l-7 40 109 1 c127 1 203 18 318 74 367 177 513 618 324 980 -118 227
-359 377 -619 386 -71 3 -128 -1 -174 -12z m182 -690 c2 -470 2 -471 -20 -499
-21 -26 -24 -27 -97 -23 -50 3 -90 12 -116 25 -44 23 -98 85 -120 137 -9 21
-25 37 -42 44 -42 14 -91 59 -115 106 -16 31 -21 57 -20 106 0 36 1 99 1 139
1 107 23 173 75 225 24 25 58 47 78 52 25 6 46 23 70 54 55 73 149 111 263
107 l40 -2 3 -471z m165 430 c42 -21 77 -54 87 -80 5 -13 21 -24 41 -28 79
-16 142 -101 144 -196 0 -34 8 -68 20 -90 30 -54 27 -151 -7 -216 -27 -51 -80
-101 -131 -125 -21 -9 -31 -24 -39 -57 -7 -29 -26 -60 -52 -88 -49 -51 -88
-64 -116 -39 -29 26 -25 41 25 89 51 50 56 68 20 84 -21 10 -25 18 -25 56 0
58 18 73 60 51 41 -21 81 -12 126 27 61 54 79 113 51 168 -11 21 -20 25 -57
25 l-45 0 -3 40 c-4 44 14 65 55 65 35 0 29 36 -11 76 -36 36 -70 44 -80 19
-7 -19 -66 -55 -90 -55 -24 0 -56 28 -56 49 0 9 19 33 42 54 l43 37 -42 38
c-43 37 -45 43 -27 100 5 17 29 15 67 -4z m-1686 -225 c262 -29 506 -135 697
-303 57 -50 64 -61 90 -138 42 -128 88 -202 188 -301 82 -82 90 -93 113 -165
44 -139 58 -249 52 -432 -6 -186 -28 -297 -92 -454 -168 -416 -553 -723 -1005
-802 -138 -24 -380 -15 -510 19 -189 49 -333 118 -482 230 -76 57 -242 223
-236 236 2 4 74 99 160 211 87 113 218 283 291 379 73 96 137 176 142 177 6 2
105 -110 220 -247 271 -322 273 -324 333 -324 28 0 59 7 73 16 14 9 144 189
289 400 145 211 275 399 288 417 l25 32 43 -25 c46 -27 83 -32 102 -13 16 16
17 429 1 445 -13 13 -31 7 -254 -88 -77 -33 -148 -68 -158 -77 -30 -27 -18
-63 34 -98 l46 -30 -244 -348 c-134 -192 -242 -350 -240 -352 2 -2 59 76 127
174 68 97 176 251 240 342 64 91 120 170 123 177 5 7 -9 22 -37 38 -25 15 -48
35 -51 45 -9 27 10 56 42 68 16 6 102 42 193 80 91 39 168 68 172 65 9 -5 11
-404 2 -427 -9 -23 -42 -20 -93 9 -23 14 -46 25 -50 25 -3 0 -67 -88 -141
-195 -482 -700 -453 -661 -507 -671 -61 -11 -86 10 -264 220 -94 111 -200 236
-237 279 -36 42 -70 77 -76 77 -7 0 -62 -66 -123 -147 -111 -147 -304 -399
-418 -546 l-60 -77 -18 22 c-10 13 -42 64 -72 114 -200 334 -236 753 -98 1124
209 561 776 907 1380 839z"/>
<path d="M6361 7947 c-19 -7 -43 -24 -54 -39 l-20 -27 27 -31 c31 -37 34 -75
7 -90 -35 -18 -65 -11 -92 22 -24 29 -29 31 -52 21 -56 -26 -82 -117 -54 -185
13 -30 13 -39 2 -48 -27 -22 -37 -65 -26 -108 15 -54 57 -88 121 -97 47 -6 50
-9 50 -36 0 -43 24 -95 53 -114 39 -25 90 -37 99 -22 4 6 7 68 6 137 l-3 125
-89 6 c-77 5 -92 9 -108 29 -23 28 -23 43 1 65 17 15 32 16 98 11 43 -4 84 -3
92 2 11 8 12 46 8 198 -6 206 -5 203 -66 181z"/>
<path d="M4352 6718 c-21 -10 -642 -807 -642 -823 0 -10 58 63 348 442 145
188 274 351 289 362 31 25 99 28 130 6 20 -14 143 -156 382 -443 85 -101 116
-134 95 -100 -26 42 -440 527 -466 546 -34 24 -96 29 -136 10z"/>
<path d="M2664 3331 c-68 -31 -92 -106 -54 -168 37 -62 124 -82 187 -43 40 24
56 53 56 102 0 93 -99 151 -189 109z"/>
<path d="M4150 3294 c-185 -50 -287 -202 -251 -377 29 -139 128 -202 437 -277
113 -27 153 -56 160 -115 10 -81 -52 -135 -166 -143 -113 -8 -195 30 -221 103
l-13 34 -113 3 -113 3 0 -27 c0 -44 37 -131 74 -174 78 -90 206 -138 371 -137
266 2 430 147 413 367 -13 159 -106 231 -391 302 -180 45 -207 62 -207 137 0
83 62 128 175 128 30 0 71 -5 90 -11 38 -13 82 -58 91 -96 6 -24 8 -24 121
-24 l115 0 -6 38 c-17 95 -86 186 -175 232 -98 49 -275 65 -391 34z"/>
<path d="M1750 2745 l0 -546 110 3 111 3 0 218 0 217 229 0 230 0 0 95 0 95
-231 0 -230 0 3 133 3 132 248 3 247 2 0 95 0 95 -360 0 -360 0 0 -545z"/>
<path d="M3363 3026 c-54 -17 -106 -50 -137 -87 -14 -16 -26 -29 -28 -29 -2 0
-3 24 -3 52 l0 53 -102 3 -103 3 0 -411 0 -411 108 3 107 3 5 270 c6 299 7
305 73 345 43 27 131 27 174 0 64 -39 68 -56 71 -353 l3 -268 105 3 105 3 0
295 c-1 352 -6 376 -86 456 -40 40 -62 54 -111 67 -71 20 -123 21 -181 3z"/>
<path d="M5130 3030 c-112 -24 -218 -109 -267 -216 -30 -65 -42 -173 -32 -280
14 -141 92 -254 217 -312 51 -24 68 -27 172 -27 108 0 119 2 180 31 105 50
176 137 195 237 l7 37 -110 0 -110 0 -19 -37 c-27 -56 -74 -83 -143 -83 -71 0
-116 27 -147 90 -19 37 -23 60 -23 140 0 109 17 159 69 203 78 65 211 39 242
-48 l13 -35 109 0 109 0 -7 38 c-20 107 -100 204 -201 241 -62 24 -190 34
-254 21z"/>
<path d="M6002 3029 c-197 -38 -312 -196 -312 -424 1 -185 69 -309 207 -377
58 -28 78 -33 164 -36 171 -7 290 48 369 169 51 79 64 140 58 280 -4 103 -8
121 -36 181 -78 161 -259 245 -450 207z m150 -189 c98 -28 151 -172 117 -320
-30 -131 -170 -188 -280 -115 -64 42 -82 94 -77 220 3 92 6 106 31 144 45 68
123 95 209 71z"/>
<path d="M6995 3025 c-27 -8 -53 -14 -56 -15 -4 0 -30 -21 -58 -46 l-51 -46 0
51 0 51 -105 0 -105 0 0 -565 0 -565 110 0 110 0 0 202 0 202 33 -31 c81 -79
220 -98 332 -44 114 53 186 161 207 309 22 149 -14 297 -98 398 -69 85 -213
129 -319 99z m74 -185 c89 -25 136 -119 129 -254 -7 -139 -67 -211 -178 -211
-110 0 -175 75 -187 212 -9 117 27 200 107 241 49 24 78 27 129 12z"/>
<path d="M7823 3030 c-97 -20 -189 -83 -238 -160 -77 -123 -86 -350 -19 -483
73 -142 197 -204 393 -195 78 4 107 10 155 33 88 42 144 105 171 193 6 22 6
22 -98 22 l-104 0 -37 -34 c-26 -25 -49 -37 -82 -42 -61 -9 -122 0 -153 23
-32 24 -71 98 -71 135 l0 28 280 0 280 0 0 65 c0 187 -92 341 -236 395 -64 23
-179 33 -241 20z m185 -190 c39 -24 72 -75 72 -112 l0 -28 -171 0 -171 0 7 28
c11 44 39 85 75 109 44 31 140 32 188 3z"/>
<path d="M2615 3007 c-3 -6 -4 -190 -3 -407 l3 -395 108 -3 107 -3 0 411 0
410 -105 0 c-75 0 -107 -4 -110 -13z"/>
<path d="M4820 1900 c0 -6 -61 -186 -135 -401 -74 -214 -135 -392 -135 -395 0
-3 41 -3 92 -2 l91 3 26 85 27 85 149 0 149 0 27 -85 26 -85 92 -3 c92 -3 93
-3 85 20 -3 13 -66 194 -139 403 l-133 380 -111 3 c-74 2 -111 -1 -111 -8z
m170 -334 l49 -146 -100 0 c-54 0 -99 3 -99 7 0 13 94 292 97 289 2 -2 26 -69
53 -150z"/>
<path d="M5410 1505 l0 -405 85 0 85 0 0 405 0 405 -85 0 -85 0 0 -405z"/>
</g>
</svg>
